<?xml version="1.0" encoding="UTF-8" standalone="no"?>
<!DOCTYPE svg PUBLIC "-//W3C//DTD SVG 1.1//EN"
 "http://www.w3.org/Graphics/SVG/1.1/DTD/svg11.dtd">
<!-- Generated by graphviz version 8.0.5 (0)
 -->
<!-- Title: main_graph Pages: 1 -->
<svg width="306pt" height="260pt"
 viewBox="0.00 0.00 306.36 260.00" xmlns="http://www.w3.org/2000/svg" xmlns:xlink="http://www.w3.org/1999/xlink">
<g id="graph0" class="graph" transform="scale(1 1) rotate(0) translate(4 256)">
<title>main_graph</title>
<polygon fill="white" stroke="none" points="-4,4 -4,-256 302.36,-256 302.36,4 -4,4"/>
<!-- Beat&#45;n0 -->
<g id="node1" class="node">
<title>Beat&#45;n0</title>
<ellipse fill="none" stroke="white" cx="83.09" cy="-234" rx="40.09" ry="18"/>
<text text-anchor="middle" x="83.09" y="-228.95" font-family="Times,serif" font-size="14.00">Beat&#45;n0</text>
</g>
<!-- Beat&#45;n1 -->
<g id="node2" class="node">
<title>Beat&#45;n1</title>
<ellipse fill="none" stroke="red" cx="40.09" cy="-162" rx="40.09" ry="18"/>
<text text-anchor="middle" x="40.09" y="-156.95" font-family="Times,serif" font-size="14.00">Beat&#45;n1</text>
</g>
<!-- Beat&#45;n0&#45;&#45;Beat&#45;n1 -->
<g id="edge1" class="edge">
<title>Beat&#45;n0&#45;&#45;Beat&#45;n1</title>
<path fill="none" stroke="black" d="M72.9,-216.41C66.05,-205.25 57.05,-190.6 50.21,-179.47"/>
</g>
<!-- Beat&#45;n2 -->
<g id="node3" class="node">
<title>Beat&#45;n2</title>
<ellipse fill="none" stroke="white" cx="40.09" cy="-90" rx="40.09" ry="18"/>
<text text-anchor="middle" x="40.09" y="-84.95" font-family="Times,serif" font-size="14.00">Beat&#45;n2</text>
</g>
<!-- Beat&#45;n1&#45;&#45;Beat&#45;n2 -->
<g id="edge2" class="edge">
<title>Beat&#45;n1&#45;&#45;Beat&#45;n2</title>
<path fill="none" stroke="black" d="M40.09,-143.7C40.09,-132.85 40.09,-118.92 40.09,-108.1"/>
</g>
<!-- Beat&#45;n3 -->
<g id="node4" class="node">
<title>Beat&#45;n3</title>
<ellipse fill="none" stroke="white" cx="83.09" cy="-18" rx="40.09" ry="18"/>
<text text-anchor="middle" x="83.09" y="-12.95" font-family="Times,serif" font-size="14.00">Beat&#45;n3</text>
</g>
<!-- Beat&#45;n2&#45;&#45;Beat&#45;n3 -->
<g id="edge3" class="edge">
<title>Beat&#45;n2&#45;&#45;Beat&#45;n3</title>
<path fill="none" stroke="black" d="M50.28,-72.41C57.14,-61.25 66.14,-46.6 72.97,-35.47"/>
</g>
<!-- Beat&#45;n3&#45;&#45;Beat&#45;n0 -->
<g id="edge4" class="edge">
<title>Beat&#45;n3&#45;&#45;Beat&#45;n0</title>
<path fill="none" stroke="black" d="M85.53,-36.14C86.88,-46.5 88.41,-59.98 89.09,-72 91.8,-119.92 91.8,-132.08 89.09,-180 88.41,-192.02 86.88,-205.5 85.53,-215.86"/>
</g>
<!-- Beat&#45;HiHats&#45;n0 -->
<g id="node5" class="node">
<title>Beat&#45;HiHats&#45;n0</title>
<ellipse fill="none" stroke="white" cx="229.09" cy="-234" rx="69.26" ry="18"/>
<text text-anchor="middle" x="229.09" y="-228.95" font-family="Times,serif" font-size="14.00">Beat&#45;HiHats&#45;n0</text>
</g>
<!-- Beat&#45;HiHats&#45;n1 -->
<g id="node6" class="node">
<title>Beat&#45;HiHats&#45;n1</title>
<ellipse fill="none" stroke="white" cx="205.09" cy="-162" rx="69.26" ry="18"/>
<text text-anchor="middle" x="205.09" y="-156.95" font-family="Times,serif" font-size="14.00">Beat&#45;HiHats&#45;n1</text>
</g>
<!-- Beat&#45;HiHats&#45;n0&#45;&#45;Beat&#45;HiHats&#45;n1 -->
<g id="edge5" class="edge">
<title>Beat&#45;HiHats&#45;n0&#45;&#45;Beat&#45;HiHats&#45;n1</title>
<path fill="none" stroke="black" d="M223.16,-215.7C219.44,-204.85 214.66,-190.92 210.96,-180.1"/>
</g>
<!-- Beat&#45;HiHats&#45;n2 -->
<g id="node7" class="node">
<title>Beat&#45;HiHats&#45;n2</title>
<ellipse fill="none" stroke="red" cx="205.09" cy="-90" rx="69.26" ry="18"/>
<text text-anchor="middle" x="205.09" y="-84.95" font-family="Times,serif" font-size="14.00">Beat&#45;HiHats&#45;n2</text>
</g>
<!-- Beat&#45;HiHats&#45;n1&#45;&#45;Beat&#45;HiHats&#45;n2 -->
<g id="edge6" class="edge">
<title>Beat&#45;HiHats&#45;n1&#45;&#45;Beat&#45;HiHats&#45;n2</title>
<path fill="none" stroke="black" d="M205.09,-143.7C205.09,-132.85 205.09,-118.92 205.09,-108.1"/>
</g>
<!-- Beat&#45;HiHats&#45;n3 -->
<g id="node8" class="node">
<title>Beat&#45;HiHats&#45;n3</title>
<ellipse fill="none" stroke="white" cx="229.09" cy="-18" rx="69.26" ry="18"/>
<text text-anchor="middle" x="229.09" y="-12.95" font-family="Times,serif" font-size="14.00">Beat&#45;HiHats&#45;n3</text>
</g>
<!-- Beat&#45;HiHats&#45;n2&#45;&#45;Beat&#45;HiHats&#45;n3 -->
<g id="edge7" class="edge">
<title>Beat&#45;HiHats&#45;n2&#45;&#45;Beat&#45;HiHats&#45;n3</title>
<path fill="none" stroke="black" d="M211.02,-71.7C214.74,-60.85 219.52,-46.92 223.23,-36.1"/>
</g>
<!-- Beat&#45;HiHats&#45;n3&#45;&#45;Beat&#45;HiHats&#45;n0 -->
<g id="edge8" class="edge">
<title>Beat&#45;HiHats&#45;n3&#45;&#45;Beat&#45;HiHats&#45;n0</title>
<path fill="none" stroke="black" d="M252.89,-35.22C264.33,-44.49 276.89,-57.22 283.09,-72 301.67,-116.26 301.67,-135.74 283.09,-180 276.89,-194.78 264.33,-207.51 252.89,-216.78"/>
</g>
</g>
</svg>
